<?xml version="1.0"?>
<svg xmlns="http://www.w3.org/2000/svg" id="icons" enable-background="new 0 0 64 64" height="50px" viewBox="0 0 64 64" width="50px" class=""><g><path d="m60.175 24.406c.524-4.462-.339-8.078-.357-8.151-.045-.181-.141-.346-.274-.476-.115-.111-2.801-2.674-6.939-4.444-1.777-4.126-4.332-6.825-4.385-6.88-.13-.135-.295-.229-.477-.274-.156-.039-3.764-.917-8.235-.379-3.602-2.684-7.162-3.743-7.234-3.764-.18-.051-.369-.051-.549 0-.154.045-3.718 1.086-7.32 3.786-4.461-.523-8.074.339-8.148.358-.181.045-.346.141-.476.274-.111.115-2.676 2.802-4.445 6.941-4.125 1.776-6.823 4.33-6.877 4.383-.134.13-.229.295-.274.476-.039.156-.918 3.764-.381 8.233-2.685 3.602-3.743 7.163-3.764 7.235-.051.18-.051.369 0 .549.045.154 1.086 3.719 3.787 7.321-.523 4.461.339 8.074.357 8.147.045.181.141.346.274.476.115.111 2.8 2.675 6.94 4.445 1.777 4.125 4.331 6.822 4.384 6.877.13.134.295.229.476.274.119.03 2.275.559 5.297.559.905 0 1.897-.059 2.927-.182 3.604 2.688 7.171 3.749 7.243 3.77.088.027.18.04.273.04s.185-.013.274-.038c.154-.045 3.719-1.086 7.319-3.785 1.034.121 2.023.17 2.934.17 3.015 0 5.161-.515 5.218-.529.181-.045.346-.141.476-.274.111-.115 2.678-2.805 4.448-6.947 4.121-1.777 6.822-4.325 6.876-4.377.135-.13.229-.295.274-.477.039-.155.916-3.763.38-8.231 2.685-3.603 3.744-7.166 3.765-7.238.051-.18.051-.37 0-.55-.045-.156-1.089-3.717-3.787-7.318zm-2.236-7.384c.4 1.966 2.319 13.672-7.314 19.234-5.123 2.957-11.436 2.014-15.504-1.892 1.271.34 2.565.507 3.853.507 5.189-.001 10.243-2.69 13.018-7.497s2.673-9.49 1.573-13.357c2.237 1.201 3.824 2.518 4.374 3.005zm-10.96-10.962c.64.71 2.59 3.028 3.946 6.275.024.104.063.199.119.291 1.496 3.741 2.158 8.649-.786 13.749-2.962 5.131-8.919 7.47-14.405 6.104 6.407-1.708 11.145-7.542 11.145-14.479 0-5.552-2.432-9.557-5.317-12.355 2.543-.081 4.582.268 5.298.415zm-14.981-4.011c1.9.636 13 4.826 13 15.951 0 5.92-3.982 10.919-9.406 12.483 1.851-1.842 3.203-4.136 3.896-6.726 1.036-3.87.504-7.912-1.499-11.381-2.776-4.809-6.884-7.062-10.782-8.043 2.158-1.337 4.094-2.052 4.791-2.284zm-14.976 4.012c1.967-.397 13.673-2.318 19.234 7.316 1.736 3.007 2.198 6.51 1.3 9.863-.58 2.167-1.689 4.099-3.209 5.666.686-2.525.712-5.194.016-7.789-1.037-3.87-3.52-7.104-6.988-9.106-4.808-2.776-9.491-2.674-13.358-1.574 1.2-2.238 2.517-3.826 3.005-4.376zm-10.961 10.963c1.501-1.328 10.676-8.846 20.314-3.281 3.007 1.735 5.157 4.538 6.057 7.892.582 2.171.586 4.402.051 6.523-1.704-6.413-7.542-11.158-14.483-11.158-5.552 0-9.556 2.431-12.355 5.315-.08-2.538.268-4.57.416-5.291zm-4.012 14.976c.635-1.9 4.824-13 15.951-13 5.921 0 10.92 3.983 12.484 9.408-1.842-1.852-4.137-3.204-6.727-3.898-3.87-1.037-7.913-.504-11.381 1.499-4.809 2.776-7.062 6.884-8.043 10.783-1.337-2.159-2.052-4.095-2.284-4.792zm4.012 14.976c-.4-1.965-2.319-13.672 7.316-19.234 3.007-1.737 6.51-2.198 9.863-1.3 2.167.58 4.099 1.69 5.666 3.21-2.525-.687-5.194-.712-7.789-.018-3.87 1.037-7.104 3.52-9.106 6.989-2.776 4.808-2.674 9.491-1.574 13.358-2.24-1.201-3.826-2.517-4.376-3.005zm10.963 10.962c-1.328-1.501-8.846-10.68-3.281-20.314 1.735-3.008 4.538-5.158 7.892-6.058 2.172-.581 4.402-.583 6.523-.049-6.414 1.703-11.16 7.541-11.16 14.483 0 5.552 2.431 9.556 5.316 12.354-2.537.08-4.569-.269-5.29-.416zm14.974 4.013c-1.9-.636-13-4.826-13-15.951 0-5.926 3.99-10.929 9.422-12.487-4.692 4.682-5.879 12.105-2.411 18.112 2.778 4.812 6.888 7.056 10.789 8.036-2.162 1.341-4.102 2.058-4.8 2.29zm14.978-4.012c-1.967.397-13.673 2.317-19.234-7.314-2.963-5.133-2.009-11.46 1.915-15.526-1.723 6.402.961 13.424 6.967 16.893 2.885 1.665 5.723 2.295 8.369 2.294 1.77 0 3.444-.292 4.996-.734-1.204 2.243-2.524 3.836-3.013 4.387zm10.962-10.96c-.71.641-3.031 2.593-6.282 3.95-.1.023-.189.061-.277.112-3.741 1.498-8.652 2.163-13.756-.783-5.132-2.963-7.469-8.92-6.104-14.404 1.71 6.407 7.545 11.146 14.481 11.146 5.551 0 9.555-2.43 12.354-5.315.08 2.543-.269 4.578-.416 5.294zm.549-8.416c-.075.071-.136.149-.186.239-2.49 3.168-6.411 6.198-12.301 6.198-5.916 0-10.912-3.977-12.481-9.395 2.845 2.842 6.697 4.391 10.631 4.39 2.543 0 5.12-.646 7.476-2.006 4.807-2.775 7.059-6.882 8.041-10.78 1.339 2.162 2.055 4.099 2.286 4.793-.296.91-1.329 3.761-3.466 6.561z" data-original="#000000" class="active-path" data-old_color="#000000" fill="#2EBAD9"/></g> </svg>
